<mxfile host="Electron" agent="Mozilla/5.0 (Windows NT 10.0; Win64; x64) AppleWebKit/537.36 (KHTML, like Gecko) draw.io/24.7.5 Chrome/126.0.6478.183 Electron/31.3.0 Safari/537.36" version="24.7.5" pages="3">
  <diagram name="Conceitual" id="pUmCs6wFMYU--RFpVnRP">
    <mxGraphModel dx="1103" dy="649" grid="1" gridSize="10" guides="1" tooltips="1" connect="1" arrows="1" fold="1" page="1" pageScale="1" pageWidth="827" pageHeight="1169" math="0" shadow="0">
      <root>
        <mxCell id="0" />
        <mxCell id="1" parent="0" />
        <mxCell id="Uhyl-eg9NlFHQizATxnB-4" style="edgeStyle=orthogonalEdgeStyle;rounded=0;orthogonalLoop=1;jettySize=auto;html=1;entryX=0;entryY=0.5;entryDx=0;entryDy=0;" parent="1" source="Uhyl-eg9NlFHQizATxnB-2" target="Uhyl-eg9NlFHQizATxnB-3" edge="1">
          <mxGeometry relative="1" as="geometry" />
        </mxCell>
        <mxCell id="Uhyl-eg9NlFHQizATxnB-2" value="Arduino" style="rounded=0;whiteSpace=wrap;html=1;" parent="1" vertex="1">
          <mxGeometry x="169" y="80" width="120" height="60" as="geometry" />
        </mxCell>
        <mxCell id="Uhyl-eg9NlFHQizATxnB-6" style="edgeStyle=orthogonalEdgeStyle;rounded=0;orthogonalLoop=1;jettySize=auto;html=1;entryX=0.5;entryY=0;entryDx=0;entryDy=0;" parent="1" source="Uhyl-eg9NlFHQizATxnB-3" target="Uhyl-eg9NlFHQizATxnB-5" edge="1">
          <mxGeometry relative="1" as="geometry" />
        </mxCell>
        <mxCell id="Uhyl-eg9NlFHQizATxnB-3" value="NodeRed (MQTT)" style="rounded=0;whiteSpace=wrap;html=1;" parent="1" vertex="1">
          <mxGeometry x="349" y="80" width="120" height="60" as="geometry" />
        </mxCell>
        <mxCell id="Uhyl-eg9NlFHQizATxnB-8" style="edgeStyle=orthogonalEdgeStyle;rounded=0;orthogonalLoop=1;jettySize=auto;html=1;entryX=0.5;entryY=0;entryDx=0;entryDy=0;" parent="1" source="Uhyl-eg9NlFHQizATxnB-5" target="Uhyl-eg9NlFHQizATxnB-7" edge="1">
          <mxGeometry relative="1" as="geometry" />
        </mxCell>
        <mxCell id="Uhyl-eg9NlFHQizATxnB-5" value="Cloud" style="rounded=0;whiteSpace=wrap;html=1;" parent="1" vertex="1">
          <mxGeometry x="349" y="190" width="120" height="60" as="geometry" />
        </mxCell>
        <mxCell id="Uhyl-eg9NlFHQizATxnB-7" value="LLM" style="rounded=0;whiteSpace=wrap;html=1;" parent="1" vertex="1">
          <mxGeometry x="349" y="300" width="120" height="60" as="geometry" />
        </mxCell>
        <mxCell id="Uhyl-eg9NlFHQizATxnB-12" style="edgeStyle=orthogonalEdgeStyle;rounded=0;orthogonalLoop=1;jettySize=auto;html=1;entryX=1;entryY=0.5;entryDx=0;entryDy=0;" parent="1" source="Uhyl-eg9NlFHQizATxnB-9" target="Uhyl-eg9NlFHQizATxnB-5" edge="1">
          <mxGeometry relative="1" as="geometry" />
        </mxCell>
        <mxCell id="Uhyl-eg9NlFHQizATxnB-9" value="Imagem da planta" style="rounded=0;whiteSpace=wrap;html=1;" parent="1" vertex="1">
          <mxGeometry x="539" y="190" width="120" height="60" as="geometry" />
        </mxCell>
        <mxCell id="CIS3V6EKxKroNZWoh8yn-1" value="IC Horta Vertical - 2024" style="text;html=1;align=center;verticalAlign=middle;resizable=0;points=[];autosize=1;strokeColor=none;fillColor=none;" vertex="1" parent="1">
          <mxGeometry x="19" y="20" width="150" height="30" as="geometry" />
        </mxCell>
      </root>
    </mxGraphModel>
  </diagram>
  <diagram id="oZDHtUhizxDmb5oNvFkT" name="v0">
    <mxGraphModel dx="1912" dy="1125" grid="1" gridSize="10" guides="1" tooltips="1" connect="1" arrows="1" fold="1" page="1" pageScale="1" pageWidth="827" pageHeight="1169" math="0" shadow="0">
      <root>
        <mxCell id="0" />
        <mxCell id="1" parent="0" />
        <mxCell id="uZ_pk-vzCWKy_uup3v1J-44" style="edgeStyle=orthogonalEdgeStyle;rounded=0;orthogonalLoop=1;jettySize=auto;html=1;entryX=0.5;entryY=0;entryDx=0;entryDy=0;" edge="1" parent="1" source="uZ_pk-vzCWKy_uup3v1J-1" target="uZ_pk-vzCWKy_uup3v1J-3">
          <mxGeometry relative="1" as="geometry" />
        </mxCell>
        <mxCell id="uZ_pk-vzCWKy_uup3v1J-1" value="Arduino" style="dashed=0;outlineConnect=0;html=1;align=center;labelPosition=center;verticalLabelPosition=bottom;verticalAlign=top;shape=mxgraph.weblogos.arduino;fillColor=#36868D;strokeColor=none" vertex="1" parent="1">
          <mxGeometry x="145.3" y="85" width="67.4" height="32" as="geometry" />
        </mxCell>
        <mxCell id="uZ_pk-vzCWKy_uup3v1J-3" value="Hub MQTT" style="rounded=0;whiteSpace=wrap;html=1;" vertex="1" parent="1">
          <mxGeometry x="119" y="240" width="120" height="60" as="geometry" />
        </mxCell>
        <mxCell id="uZ_pk-vzCWKy_uup3v1J-15" value="AWS Cloud" style="points=[[0,0],[0.25,0],[0.5,0],[0.75,0],[1,0],[1,0.25],[1,0.5],[1,0.75],[1,1],[0.75,1],[0.5,1],[0.25,1],[0,1],[0,0.75],[0,0.5],[0,0.25]];outlineConnect=0;gradientColor=none;html=1;whiteSpace=wrap;fontSize=12;fontStyle=0;container=1;pointerEvents=0;collapsible=0;recursiveResize=0;shape=mxgraph.aws4.group;grIcon=mxgraph.aws4.group_aws_cloud_alt;strokeColor=#232F3E;fillColor=none;verticalAlign=top;align=left;spacingLeft=30;fontColor=#232F3E;dashed=0;" vertex="1" parent="1">
          <mxGeometry x="99" y="420" width="630" height="530" as="geometry" />
        </mxCell>
        <mxCell id="uZ_pk-vzCWKy_uup3v1J-13" value="IngestÃ£o IoT" style="sketch=0;points=[[0,0,0],[0.25,0,0],[0.5,0,0],[0.75,0,0],[1,0,0],[0,1,0],[0.25,1,0],[0.5,1,0],[0.75,1,0],[1,1,0],[0,0.25,0],[0,0.5,0],[0,0.75,0],[1,0.25,0],[1,0.5,0],[1,0.75,0]];outlineConnect=0;fontColor=#232F3E;fillColor=#ED7100;strokeColor=#ffffff;dashed=0;verticalLabelPosition=bottom;verticalAlign=top;align=center;html=1;fontSize=12;fontStyle=0;aspect=fixed;shape=mxgraph.aws4.resourceIcon;resIcon=mxgraph.aws4.lambda;" vertex="1" parent="uZ_pk-vzCWKy_uup3v1J-15">
          <mxGeometry x="40" y="50" width="78" height="78" as="geometry" />
        </mxCell>
        <mxCell id="uZ_pk-vzCWKy_uup3v1J-12" value="Modelo treiando" style="shape=image;verticalLabelPosition=bottom;labelBackgroundColor=default;verticalAlign=top;aspect=fixed;imageAspect=0;image=https://static-00.iconduck.com/assets.00/openai-icon-2021x2048-4rpe5x7n.png;" vertex="1" parent="uZ_pk-vzCWKy_uup3v1J-15">
          <mxGeometry x="258.94" y="390" width="84.13" height="85.27" as="geometry" />
        </mxCell>
        <mxCell id="uZ_pk-vzCWKy_uup3v1J-17" value="DynamoDb" style="sketch=0;points=[[0,0,0],[0.25,0,0],[0.5,0,0],[0.75,0,0],[1,0,0],[0,1,0],[0.25,1,0],[0.5,1,0],[0.75,1,0],[1,1,0],[0,0.25,0],[0,0.5,0],[0,0.75,0],[1,0.25,0],[1,0.5,0],[1,0.75,0]];outlineConnect=0;fontColor=#232F3E;fillColor=#C925D1;strokeColor=#ffffff;dashed=0;verticalLabelPosition=bottom;verticalAlign=top;align=center;html=1;fontSize=12;fontStyle=0;aspect=fixed;shape=mxgraph.aws4.resourceIcon;resIcon=mxgraph.aws4.dynamodb;" vertex="1" parent="uZ_pk-vzCWKy_uup3v1J-15">
          <mxGeometry x="200" y="50" width="78" height="78" as="geometry" />
        </mxCell>
        <mxCell id="uZ_pk-vzCWKy_uup3v1J-27" value="Bucket de imagens" style="sketch=0;points=[[0,0,0],[0.25,0,0],[0.5,0,0],[0.75,0,0],[1,0,0],[0,1,0],[0.25,1,0],[0.5,1,0],[0.75,1,0],[1,1,0],[0,0.25,0],[0,0.5,0],[0,0.75,0],[1,0.25,0],[1,0.5,0],[1,0.75,0]];outlineConnect=0;fontColor=#232F3E;fillColor=#7AA116;strokeColor=#ffffff;dashed=0;verticalLabelPosition=bottom;verticalAlign=top;align=center;html=1;fontSize=12;fontStyle=0;aspect=fixed;shape=mxgraph.aws4.resourceIcon;resIcon=mxgraph.aws4.s3;" vertex="1" parent="uZ_pk-vzCWKy_uup3v1J-15">
          <mxGeometry x="487.75" y="50" width="78" height="78" as="geometry" />
        </mxCell>
        <mxCell id="uZ_pk-vzCWKy_uup3v1J-29" style="edgeStyle=orthogonalEdgeStyle;rounded=0;orthogonalLoop=1;jettySize=auto;html=1;entryX=0;entryY=0.5;entryDx=0;entryDy=0;entryPerimeter=0;" edge="1" parent="uZ_pk-vzCWKy_uup3v1J-15" source="uZ_pk-vzCWKy_uup3v1J-13" target="uZ_pk-vzCWKy_uup3v1J-17">
          <mxGeometry relative="1" as="geometry" />
        </mxCell>
        <mxCell id="uZ_pk-vzCWKy_uup3v1J-36" style="edgeStyle=orthogonalEdgeStyle;rounded=0;orthogonalLoop=1;jettySize=auto;html=1;" edge="1" parent="uZ_pk-vzCWKy_uup3v1J-15" source="uZ_pk-vzCWKy_uup3v1J-31" target="uZ_pk-vzCWKy_uup3v1J-12">
          <mxGeometry relative="1" as="geometry" />
        </mxCell>
        <mxCell id="uZ_pk-vzCWKy_uup3v1J-31" value="LLM" style="sketch=0;points=[[0,0,0],[0.25,0,0],[0.5,0,0],[0.75,0,0],[1,0,0],[0,1,0],[0.25,1,0],[0.5,1,0],[0.75,1,0],[1,1,0],[0,0.25,0],[0,0.5,0],[0,0.75,0],[1,0.25,0],[1,0.5,0],[1,0.75,0]];outlineConnect=0;fontColor=#232F3E;fillColor=#ED7100;strokeColor=#ffffff;dashed=0;verticalLabelPosition=bottom;verticalAlign=top;align=center;html=1;fontSize=12;fontStyle=0;aspect=fixed;shape=mxgraph.aws4.resourceIcon;resIcon=mxgraph.aws4.lambda;" vertex="1" parent="uZ_pk-vzCWKy_uup3v1J-15">
          <mxGeometry x="262" y="226" width="78" height="78" as="geometry" />
        </mxCell>
        <mxCell id="uZ_pk-vzCWKy_uup3v1J-37" style="edgeStyle=orthogonalEdgeStyle;rounded=0;orthogonalLoop=1;jettySize=auto;html=1;entryX=0.5;entryY=0;entryDx=0;entryDy=0;entryPerimeter=0;" edge="1" parent="uZ_pk-vzCWKy_uup3v1J-15" source="uZ_pk-vzCWKy_uup3v1J-17" target="uZ_pk-vzCWKy_uup3v1J-31">
          <mxGeometry relative="1" as="geometry" />
        </mxCell>
        <mxCell id="uZ_pk-vzCWKy_uup3v1J-38" value="Metadados das imagens" style="sketch=0;points=[[0,0,0],[0.25,0,0],[0.5,0,0],[0.75,0,0],[1,0,0],[0,1,0],[0.25,1,0],[0.5,1,0],[0.75,1,0],[1,1,0],[0,0.25,0],[0,0.5,0],[0,0.75,0],[1,0.25,0],[1,0.5,0],[1,0.75,0]];outlineConnect=0;fontColor=#232F3E;fillColor=#ED7100;strokeColor=#ffffff;dashed=0;verticalLabelPosition=bottom;verticalAlign=top;align=center;html=1;fontSize=12;fontStyle=0;aspect=fixed;shape=mxgraph.aws4.resourceIcon;resIcon=mxgraph.aws4.lambda;" vertex="1" parent="uZ_pk-vzCWKy_uup3v1J-15">
          <mxGeometry x="340" y="50" width="78" height="78" as="geometry" />
        </mxCell>
        <mxCell id="uZ_pk-vzCWKy_uup3v1J-39" style="edgeStyle=orthogonalEdgeStyle;rounded=0;orthogonalLoop=1;jettySize=auto;html=1;entryX=1;entryY=0.5;entryDx=0;entryDy=0;entryPerimeter=0;" edge="1" parent="uZ_pk-vzCWKy_uup3v1J-15" source="uZ_pk-vzCWKy_uup3v1J-27" target="uZ_pk-vzCWKy_uup3v1J-38">
          <mxGeometry relative="1" as="geometry" />
        </mxCell>
        <mxCell id="uZ_pk-vzCWKy_uup3v1J-40" style="edgeStyle=orthogonalEdgeStyle;rounded=0;orthogonalLoop=1;jettySize=auto;html=1;entryX=1;entryY=0.5;entryDx=0;entryDy=0;entryPerimeter=0;" edge="1" parent="uZ_pk-vzCWKy_uup3v1J-15" source="uZ_pk-vzCWKy_uup3v1J-38" target="uZ_pk-vzCWKy_uup3v1J-17">
          <mxGeometry relative="1" as="geometry" />
        </mxCell>
        <mxCell id="uZ_pk-vzCWKy_uup3v1J-20" value="IngestÃ£o das imagens" style="outlineConnect=0;dashed=0;verticalLabelPosition=bottom;verticalAlign=top;align=center;html=1;shape=mxgraph.aws3.android;fillColor=#FFD44F;gradientColor=none;" vertex="1" parent="1">
          <mxGeometry x="589" y="228" width="73.5" height="84" as="geometry" />
        </mxCell>
        <mxCell id="uZ_pk-vzCWKy_uup3v1J-23" style="edgeStyle=orthogonalEdgeStyle;rounded=0;orthogonalLoop=1;jettySize=auto;html=1;entryX=0.5;entryY=0;entryDx=0;entryDy=0;entryPerimeter=0;" edge="1" parent="1" source="uZ_pk-vzCWKy_uup3v1J-3" target="uZ_pk-vzCWKy_uup3v1J-13">
          <mxGeometry relative="1" as="geometry" />
        </mxCell>
        <mxCell id="uZ_pk-vzCWKy_uup3v1J-25" value="Camera" style="sketch=0;outlineConnect=0;fontColor=#232F3E;gradientColor=none;fillColor=#232F3D;strokeColor=none;dashed=0;verticalLabelPosition=bottom;verticalAlign=top;align=center;html=1;fontSize=12;fontStyle=0;aspect=fixed;pointerEvents=1;shape=mxgraph.aws4.camera2;" vertex="1" parent="1">
          <mxGeometry x="586.75" y="70" width="78" height="62" as="geometry" />
        </mxCell>
        <mxCell id="uZ_pk-vzCWKy_uup3v1J-28" style="edgeStyle=orthogonalEdgeStyle;rounded=0;orthogonalLoop=1;jettySize=auto;html=1;entryX=0.5;entryY=0;entryDx=0;entryDy=0;entryPerimeter=0;" edge="1" parent="1" source="uZ_pk-vzCWKy_uup3v1J-20" target="uZ_pk-vzCWKy_uup3v1J-27">
          <mxGeometry relative="1" as="geometry" />
        </mxCell>
        <mxCell id="uZ_pk-vzCWKy_uup3v1J-43" style="edgeStyle=orthogonalEdgeStyle;rounded=0;orthogonalLoop=1;jettySize=auto;html=1;entryX=0.5;entryY=0;entryDx=0;entryDy=0;entryPerimeter=0;" edge="1" parent="1" source="uZ_pk-vzCWKy_uup3v1J-25" target="uZ_pk-vzCWKy_uup3v1J-20">
          <mxGeometry relative="1" as="geometry" />
        </mxCell>
      </root>
    </mxGraphModel>
  </diagram>
  <diagram id="Xdorg3_p6lqvQc7F_wEc" name="Arduino">
    <mxGraphModel dx="1434" dy="844" grid="1" gridSize="10" guides="1" tooltips="1" connect="1" arrows="1" fold="1" page="1" pageScale="1" pageWidth="827" pageHeight="1169" math="0" shadow="0">
      <root>
        <mxCell id="0" />
        <mxCell id="1" parent="0" />
      </root>
    </mxGraphModel>
  </diagram>
</mxfile>
